# xmcd
#
# Track frame offsets:
#	150
#	10122
#	22055
#	36250
#	50280
#	70980
#	81752
#	94085
#	105557
#	125967
#	137290
#	150177
#
# Disc length: 2152 seconds
#
# Revision: 0
# Processed by: cddbd v1.5.1PL0 Copyright (c) Steve Scherf et al.
# Submitted via: dBpowerAMP V4.0
#
DISCID=9108660c
DTITLE=Zé Fortuna e Pintangueira - Alma de Pedra
DYEAR=1900
DGENRE=Sertanejo
TTITLE0=ALMA DE PEDRA
TTITLE1=AS DUAS ALMAS
TTITLE2=A SAUDADE CONTINUA
TTITLE3=CABRA MACHO
TTITLE4=A MENINA E SEUS BICHINHOS
TTITLE5=DE OLHO NELA
TTITLE6=MEU AMIGO VIOLÃO
TTITLE7=A SANFONA E O VIOLÃO
TTITLE8=PEDIDO DE CASAMENTO 
TTITLE9=TÁ ESPIANDO
TTITLE10=TRÊS BATIDAS NA PORTEIRA
TTITLE11=CORRE, CORRE
EXTD=FOROLITO> MCK MULTIMÍDIA
EXTT0=
EXTT1=
EXTT2=
EXTT3=
EXTT4=
EXTT5=
EXTT6=
EXTT7=
EXTT8=
EXTT9=
EXTT10=
EXTT11=
PLAYORDER=
